# xmcd CD database file
#
# Track frame offsets:
#	150
#	24457
#	47362
#	77150
#	110237
#	128777
#	149532
#	169917
#	189677
#	221505
#	249420
#	269515
#
# Disc length: 3828 seconds
#
# Revision: 3
# Processed by: cddbd v1.4PL0 Copyright (c) Steve Scherf et al.
# Submitted via: ACXtractor (MTCDDB.DLL V2003.07.15)
#
DISCID=b10ef20c
DTITLE=Little Axe - The`Wolf That House Built
DYEAR=1995
DGENRE=Blues
TTITLE0=Ride On
TTITLE1=The`Time Has Come
TTITLE2=Crossroads
TTITLE3=Never Turn Back Parts 1 and 2
TTITLE4=Another Sinful Day
TTITLE5=Out In The Rain And Cold
TTITLE6=Crossfire
TTITLE7=Wolf Story
TTITLE8=Hear My Cry
TTITLE9=Dayton
TTITLE10=Falling Down
TTITLE11=Wake The Town
EXTD=ID3G:   0 YEAR: 1995
EXTT0=
EXTT1=
EXTT2=
EXTT3=
EXTT4=
EXTT5=
EXTT6=
EXTT7=
EXTT8=
EXTT9=
EXTT10=
EXTT11=
PLAYORDER=
